<svg width="150" height="24" viewBox="0 0 150 24" fill="none" xmlns="http://www.w3.org/2000/svg">
<path d="M18.144 0.535999V4.92H12.192V23H6.72V4.92H0.768V0.535999H18.144ZM26.3623 4.92V9.464H33.6903V13.688H26.3623V18.616H34.6503V23H20.8903V0.535999H34.6503V4.92H26.3623ZM43.6748 18.776H50.8428V23H38.2028V0.535999H43.6748V18.776ZM58.9248 4.92V9.464H66.2528V13.688H58.9248V18.616H67.2128V23H53.4528V0.535999H67.2128V4.92H58.9248ZM78.8933 23.224C77.2506 23.224 75.7786 22.9573 74.4773 22.424C73.1759 21.8907 72.1306 21.1013 71.3413 20.056C70.5733 19.0107 70.1679 17.752 70.1253 16.28H75.9493C76.0346 17.112 76.3226 17.752 76.8133 18.2C77.3039 18.6267 77.9439 18.84 78.7333 18.84C79.5439 18.84 80.1839 18.6587 80.6533 18.296C81.1226 17.912 81.3573 17.3893 81.3573 16.728C81.3573 16.1733 81.1653 15.7147 80.7813 15.352C80.4186 14.9893 79.9599 14.6907 79.4053 14.456C78.8719 14.2213 78.1039 13.9547 77.1013 13.656C75.6506 13.208 74.4666 12.76 73.5493 12.312C72.6319 11.864 71.8426 11.2027 71.1813 10.328C70.5199 9.45333 70.1893 8.312 70.1893 6.904C70.1893 4.81333 70.9466 3.18133 72.4613 2.008C73.9759 0.813333 75.9493 0.216 78.3813 0.216C80.8559 0.216 82.8506 0.813333 84.3653 2.008C85.8799 3.18133 86.6906 4.824 86.7973 6.936H80.8773C80.8346 6.21067 80.5679 5.64533 80.0773 5.24C79.5866 4.81333 78.9573 4.6 78.1892 4.6C77.5279 4.6 76.9946 4.78133 76.5893 5.144C76.1839 5.48533 75.9813 5.98667 75.9813 6.648C75.9813 7.37333 76.3226 7.93867 77.0052 8.344C77.6879 8.74933 78.7546 9.18667 80.2053 9.656C81.6559 10.1467 82.8293 10.616 83.7253 11.064C84.6426 11.512 85.4319 12.1627 86.0933 13.016C86.7546 13.8693 87.0853 14.968 87.0853 16.312C87.0853 17.592 86.7546 18.7547 86.0933 19.8C85.4533 20.8453 84.5146 21.6773 83.2773 22.296C82.0399 22.9147 80.5786 23.224 78.8933 23.224ZM101.077 23.224C98.9648 23.224 97.0234 22.7333 95.2528 21.752C93.5034 20.7707 92.1061 19.4053 91.0608 17.656C90.0367 15.8853 89.5247 13.9013 89.5247 11.704C89.5247 9.50667 90.0367 7.53333 91.0608 5.784C92.1061 4.03467 93.5034 2.66933 95.2528 1.688C97.0234 0.706666 98.9648 0.216 101.077 0.216C103.189 0.216 105.119 0.706666 106.869 1.688C108.639 2.66933 110.026 4.03467 111.029 5.784C112.053 7.53333 112.565 9.50667 112.565 11.704C112.565 13.9013 112.053 15.8853 111.029 17.656C110.005 19.4053 108.618 20.7707 106.869 21.752C105.119 22.7333 103.189 23.224 101.077 23.224ZM101.077 18.232C102.869 18.232 104.298 17.6347 105.365 16.44C106.453 15.2453 106.997 13.6667 106.997 11.704C106.997 9.72 106.453 8.14133 105.365 6.968C104.298 5.77333 102.869 5.176 101.077 5.176C99.2634 5.176 97.8128 5.76267 96.7248 6.936C95.6581 8.10933 95.1248 9.69867 95.1248 11.704C95.1248 13.688 95.6581 15.2773 96.7248 16.472C97.8128 17.6453 99.2634 18.232 101.077 18.232ZM130.233 0.535999V4.92H121.081V9.656H127.929V13.912H121.081V23H115.609V0.535999H130.233ZM149.269 0.535999V4.92H143.317V23H137.845V4.92H131.893V0.535999H149.269Z" fill="white"/>
</svg>
