<svg width="42" height="42" viewBox="0 0 42 42" fill="none" xmlns="http://www.w3.org/2000/svg">
<g clip-path="url(#clip0_73_21)">
<path d="M21 0C9.408 0 0 9.408 0 21C0 32.592 9.408 42 21 42C32.592 42 42 32.592 42 21C42 9.408 32.592 0 21 0ZM13.713 24.087C14.322 24.696 14.322 25.704 13.713 26.313C13.398 26.628 12.999 26.775 12.6 26.775C12.201 26.775 11.802 26.628 11.487 26.313L7.287 22.113C6.678 21.504 6.678 20.496 7.287 19.887L11.487 15.687C12.096 15.078 13.104 15.078 13.713 15.687C14.322 16.296 14.322 17.304 13.713 17.913L10.626 21L13.713 24.087ZM24.549 16.716L20.349 26.523C20.097 27.111 19.509 27.468 18.9 27.468C18.69 27.468 18.48 27.426 18.291 27.342C17.493 27.006 17.115 26.082 17.472 25.263L21.672 15.456C22.008 14.658 22.932 14.28 23.73 14.637C24.528 14.994 24.885 15.918 24.549 16.716ZM34.713 22.113L30.513 26.313C30.198 26.628 29.799 26.775 29.4 26.775C29.001 26.775 28.602 26.628 28.287 26.313C27.678 25.704 27.678 24.696 28.287 24.087L31.374 21L28.287 17.913C27.678 17.304 27.678 16.296 28.287 15.687C28.896 15.078 29.904 15.078 30.513 15.687L34.713 19.887C35.322 20.496 35.322 21.504 34.713 22.113Z" fill="white"/>
</g>
<defs>
<clipPath id="clip0_73_21">
<rect width="42" height="42" fill="white"/>
</clipPath>
</defs>
</svg>
