<svg width="170" height="19" viewBox="0 0 170 19" fill="none" xmlns="http://www.w3.org/2000/svg">
<path d="M0.46875 1.00781C0.921875 1.08594 1.32031 1.14062 1.66406 1.17188C2.02344 1.20313 2.32031 1.22656 2.55469 1.24219C2.83594 1.25781 3.07812 1.26562 3.28125 1.26562C3.48438 1.26562 3.77344 1.25 4.14844 1.21875C4.46094 1.1875 4.86719 1.14844 5.36719 1.10156C5.88281 1.05469 6.51562 0.976562 7.26562 0.867188C7.04688 0.929687 6.84375 1.10938 6.65625 1.40625C6.48438 1.6875 6.32812 1.99219 6.1875 2.32031C6.01562 2.71094 5.86719 3.14062 5.74219 3.60938C5.63281 4.03125 5.49219 4.60938 5.32031 5.34375C5.16406 6.07812 5.00781 6.875 4.85156 7.73438C4.71094 8.59375 4.60156 9.46875 4.52344 10.3594C4.44531 11.2344 4.42969 12.0391 4.47656 12.7734C4.53906 13.5078 4.6875 14.1172 4.92188 14.6016C5.15625 15.0703 5.51562 15.3203 6 15.3516C6.73438 15.4141 7.34375 15.4219 7.82812 15.375C8.32812 15.3125 8.73438 15.2266 9.04688 15.1172C9.35938 15.0078 9.60156 14.8828 9.77344 14.7422C9.94531 14.5859 10.0781 14.4375 10.1719 14.2969C10.4219 13.9375 10.6797 13.4766 10.9453 12.9141C11.2109 12.3516 11.4453 11.8125 11.6484 11.2969C11.8672 10.7812 12.0469 10.3438 12.1875 9.98438C12.3281 9.625 12.3984 9.45312 12.3984 9.46875C12.3984 9.5 12.3906 9.67969 12.375 10.0078C12.375 10.3203 12.3672 10.7031 12.3516 11.1562C12.3516 11.5938 12.3438 12.0547 12.3281 12.5391C12.3281 13.0234 12.3203 13.4375 12.3047 13.7812C12.2891 14.0625 12.2734 14.375 12.2578 14.7188C12.2422 15.0156 12.2266 15.3672 12.2109 15.7734C12.2109 16.1797 12.1953 16.625 12.1641 17.1094C11.5078 17.0625 10.8828 17.0312 10.2891 17.0156C9.69531 17 9.17188 16.9922 8.71875 16.9922C8.1875 16.9922 7.69531 17 7.24219 17.0156C6.75781 17.0312 6.19531 17.0547 5.55469 17.0859C5.00781 17.1172 4.32812 17.1562 3.51562 17.2031C2.70312 17.2344 1.76562 17.2812 0.703125 17.3438C0.828125 17.125 0.929688 16.9219 1.00781 16.7344C1.10156 16.5469 1.17188 16.3906 1.21875 16.2656C1.28125 16.1094 1.32031 15.9766 1.33594 15.8672C1.42969 15.3672 1.50781 14.7344 1.57031 13.9688C1.63281 13.1875 1.67969 12.3594 1.71094 11.4844C1.75781 10.6094 1.78125 9.71875 1.78125 8.8125C1.79688 7.89062 1.79688 7.03906 1.78125 6.25781C1.76562 5.47656 1.73438 4.79688 1.6875 4.21875C1.65625 3.64062 1.60938 3.24219 1.54688 3.02344C1.46875 2.77344 1.375 2.52344 1.26562 2.27344C1.17188 2.05469 1.05469 1.83594 0.914062 1.61719C0.789062 1.38281 0.640625 1.17969 0.46875 1.00781ZM16.6875 2.13281C17.4688 2.17969 18.125 2.21875 18.6562 2.25C19.2031 2.26562 19.6562 2.28125 20.0156 2.29688C20.4219 2.3125 20.7656 2.3125 21.0469 2.29688C21.3281 2.28125 21.7109 2.24219 22.1953 2.17969C22.6016 2.13281 23.1406 2.0625 23.8125 1.96875C24.5 1.85938 25.3516 1.71875 26.3672 1.54688C26.0078 1.90625 25.7266 2.23438 25.5234 2.53125C25.3359 2.8125 25.1875 3.05469 25.0781 3.25781C24.9531 3.50781 24.8672 3.71875 24.8203 3.89062C24.7891 4.04688 24.8203 4.4375 24.9141 5.0625C25.0078 5.6875 25.1406 6.42969 25.3125 7.28906C25.4844 8.13281 25.6719 9.03906 25.875 10.0078C26.0781 10.9609 26.2812 11.8594 26.4844 12.7031C26.6875 13.5312 26.8672 14.2422 27.0234 14.8359C27.1953 15.4141 27.3203 15.7578 27.3984 15.8672C27.6328 16.1953 27.7812 16.4141 27.8438 16.5234C27.9062 16.6172 28.0156 16.7031 28.1719 16.7812C28.2344 16.8125 28.3359 16.8594 28.4766 16.9219C28.6016 16.9844 28.7656 17.0625 28.9688 17.1562C29.1875 17.25 29.4609 17.3594 29.7891 17.4844C29.1797 17.5156 28.6562 17.5391 28.2188 17.5547C27.7812 17.5547 27.4219 17.5625 27.1406 17.5781C26.8125 17.5938 26.5312 17.6094 26.2969 17.625C26.0625 17.625 25.7812 17.6406 25.4531 17.6719C25.1719 17.7031 24.8047 17.7344 24.3516 17.7656C23.9141 17.7969 23.3984 17.8281 22.8047 17.8594C23.1172 17.6406 23.3672 17.4453 23.5547 17.2734C23.7578 17.0859 23.9141 16.9297 24.0234 16.8047C24.1484 16.6484 24.2344 16.5078 24.2812 16.3828C24.3125 16.2422 24.3359 16.0312 24.3516 15.75C24.3672 15.5 24.3672 15.1719 24.3516 14.7656C24.3359 14.3438 24.2969 13.7969 24.2344 13.125L18.0703 13.7578C17.9141 14.0234 17.7969 14.2578 17.7188 14.4609C17.6406 14.6484 17.5859 14.8125 17.5547 14.9531C17.5078 15.125 17.4922 15.2656 17.5078 15.375C17.5391 15.5 17.5938 15.6484 17.6719 15.8203C17.75 15.9766 17.8594 16.1641 18 16.3828C18.1562 16.5859 18.3828 16.8281 18.6797 17.1094C18.2891 17.0938 17.8906 17.0859 17.4844 17.0859C17.0781 17.0859 16.7031 17.0938 16.3594 17.1094C15.9531 17.125 15.5547 17.1406 15.1641 17.1562C14.7734 17.1719 14.3281 17.1953 13.8281 17.2266C13.4062 17.2578 12.9141 17.2969 12.3516 17.3438C11.7734 17.375 11.1562 17.4219 10.5 17.4844C10.9062 17.2969 11.25 17.1094 11.5312 16.9219C11.8125 16.7188 12.0469 16.5312 12.2344 16.3594C12.4531 16.1719 12.6406 15.9922 12.7969 15.8203C12.9062 15.6641 13.125 15.3047 13.4531 14.7422C13.7812 14.1641 14.1484 13.4844 14.5547 12.7031C14.9766 11.9219 15.4141 11.0859 15.8672 10.1953C16.3359 9.30469 16.7578 8.46875 17.1328 7.6875C17.5078 6.89062 17.8125 6.20312 18.0469 5.625C18.2812 5.04688 18.3984 4.67188 18.3984 4.5C18.3672 4.29688 18.2891 4.07031 18.1641 3.82031C18.0547 3.60156 17.8828 3.35156 17.6484 3.07031C17.4297 2.78906 17.1094 2.47656 16.6875 2.13281ZM23.9531 11.3906C23.8594 10.8438 23.7734 10.375 23.6953 9.98438C23.6172 9.57812 23.5547 9.24219 23.5078 8.97656C23.4453 8.66406 23.3984 8.39062 23.3672 8.15625C23.3203 7.9375 23.2656 7.65625 23.2031 7.3125C23.1406 7.01562 23.0625 6.64844 22.9688 6.21094C22.8906 5.75781 22.7891 5.21875 22.6641 4.59375C21.7734 6.375 21.0781 7.75781 20.5781 8.74219C20.0938 9.71094 19.7422 10.4219 19.5234 10.875C19.2578 11.4062 19.1094 11.7188 19.0781 11.8125L23.9531 11.3906ZM26.2969 1.17188C27.3438 1.21875 28.1562 1.24219 28.7344 1.24219H29.6016C29.8516 1.24219 30.1641 1.23437 30.5391 1.21875C30.8516 1.20313 31.25 1.19531 31.7344 1.19531C32.2188 1.17969 32.7969 1.15625 33.4688 1.125C33.1562 1.34375 32.9062 1.55469 32.7188 1.75781C32.5312 1.96094 32.3828 2.14063 32.2734 2.29688C32.1484 2.48438 32.0625 2.65625 32.0156 2.8125C31.9062 3.21875 31.8594 3.77344 31.875 4.47656C31.9062 5.16406 31.9766 5.91406 32.0859 6.72656C32.1953 7.52344 32.3281 8.33594 32.4844 9.16406C32.6406 9.99219 32.7969 10.7422 32.9531 11.4141C33.125 12.0859 33.2734 12.6406 33.3984 13.0781C33.5391 13.5 33.6406 13.7109 33.7031 13.7109C33.7656 13.7109 33.8828 13.4844 34.0547 13.0312C34.2422 12.5781 34.4531 12.0078 34.6875 11.3203C34.9219 10.6172 35.1641 9.85938 35.4141 9.04688C35.6641 8.21875 35.8906 7.4375 36.0938 6.70312C36.3125 5.95312 36.4922 5.3125 36.6328 4.78125C36.7734 4.23438 36.8438 3.89844 36.8438 3.77344C36.8281 3.60156 36.7734 3.42188 36.6797 3.23438C36.6016 3.0625 36.4609 2.86719 36.2578 2.64844C36.0703 2.41406 35.8047 2.14844 35.4609 1.85156C35.9453 1.83594 36.3594 1.82031 36.7031 1.80469C37.0625 1.78906 37.3672 1.78125 37.6172 1.78125H38.3438H42.0938C41.7031 2.04688 41.3672 2.30469 41.0859 2.55469C40.8203 2.80469 40.6016 3.03906 40.4297 3.25781C40.2266 3.50781 40.0547 3.74219 39.9141 3.96094C39.7578 4.28906 39.5 5 39.1406 6.09375C38.9844 6.5625 38.8047 7.13281 38.6016 7.80469C38.3984 8.47656 38.1562 9.28125 37.875 10.2188C37.5938 11.1562 37.2812 12.2422 36.9375 13.4766C36.5938 14.6953 36.2031 16.0859 35.7656 17.6484L32.5078 18.0703C32.1172 16.8516 31.7734 15.7422 31.4766 14.7422C31.1953 13.7266 30.9453 12.8594 30.7266 12.1406C30.4766 11.2969 30.2656 10.5391 30.0938 9.86719C29.8594 9.05469 29.6562 8.23438 29.4844 7.40625C29.3281 6.5625 29.1875 5.80469 29.0625 5.13281C28.9531 4.44531 28.8516 3.875 28.7578 3.42188C28.6641 2.96875 28.5625 2.70313 28.4531 2.625C28.3594 2.54687 28.2188 2.44531 28.0312 2.32031C27.8594 2.21094 27.6406 2.07031 27.375 1.89844C27.0938 1.71094 26.7344 1.46875 26.2969 1.17188ZM40.2891 1.85156C40.8203 1.91406 41.2656 1.96094 41.625 1.99219C42 2.00781 42.3047 2.03125 42.5391 2.0625C42.8203 2.09375 43.0391 2.10938 43.1953 2.10938C43.3672 2.125 43.625 2.11719 43.9688 2.08594C44.2656 2.05469 44.6641 2.01562 45.1641 1.96875C45.6797 1.92188 46.3359 1.85156 47.1328 1.75781C46.7734 2.07031 46.4844 2.375 46.2656 2.67188C46.0625 2.95312 45.9062 3.20312 45.7969 3.42188C45.6562 3.6875 45.5703 3.9375 45.5391 4.17188C45.4766 4.54688 45.4219 5.0625 45.375 5.71875C45.3438 6.35938 45.3125 7.0625 45.2812 7.82812C45.25 8.59375 45.2344 9.38281 45.2344 10.1953C45.2344 11.0078 45.2422 11.7812 45.2578 12.5156C45.2891 13.2344 45.3359 13.875 45.3984 14.4375C45.4766 15 45.5703 15.4062 45.6797 15.6562C45.8359 15.9375 46 16.2188 46.1719 16.5C46.3281 16.7344 46.5156 16.9766 46.7344 17.2266C46.9531 17.4766 47.2031 17.6797 47.4844 17.8359C46.5625 17.7891 45.8281 17.7656 45.2812 17.7656H44.4375C44.1875 17.7656 43.8672 17.7812 43.4766 17.8125C43.1484 17.8438 42.7344 17.875 42.2344 17.9062C41.7344 17.9375 41.1328 17.9844 40.4297 18.0469C40.7891 17.6562 41.0703 17.2812 41.2734 16.9219C41.4766 16.5625 41.6406 16.25 41.7656 15.9844C41.9062 15.6719 42 15.375 42.0469 15.0938C42.1094 14.6875 42.1562 14.1875 42.1875 13.5938C42.2344 12.9844 42.2656 12.3359 42.2812 11.6484C42.2969 10.9453 42.2969 10.2344 42.2812 9.51562C42.2812 8.78125 42.2656 8.07812 42.2344 7.40625C42.2031 6.73438 42.1562 6.125 42.0938 5.57812C42.0469 5.03125 41.9844 4.59375 41.9062 4.26562C41.8594 4.0625 41.7656 3.83594 41.625 3.58594C41.5 3.36719 41.3281 3.11719 41.1094 2.83594C40.9062 2.53906 40.6328 2.21094 40.2891 1.85156ZM62.7891 0.84375C62.5703 1.34375 62.375 1.78125 62.2031 2.15625C62.0312 2.53125 61.8828 2.85156 61.7578 3.11719C61.6172 3.41406 61.5 3.67969 61.4062 3.91406C61.3281 4.08594 61.2266 4.32031 61.1016 4.61719C60.9766 4.88281 60.8203 5.23438 60.6328 5.67188C60.4609 6.09375 60.2344 6.64062 59.9531 7.3125C59.8125 6.73438 59.6406 6.22656 59.4375 5.78906C59.2344 5.35156 59.0156 4.96875 58.7812 4.64062C58.5469 4.3125 58.2969 4.04688 58.0312 3.84375C57.7812 3.625 57.5312 3.44531 57.2812 3.30469C56.7031 2.99219 56.0938 2.82031 55.4531 2.78906C54.6094 2.83594 53.9453 2.97656 53.4609 3.21094C52.9922 3.42969 52.6484 3.6875 52.4297 3.98438C52.2109 4.26562 52.0938 4.5625 52.0781 4.875C52.0625 5.17188 52.1016 5.42188 52.1953 5.625C52.2734 5.8125 52.5469 6.03125 53.0156 6.28125C53.5 6.53125 54.0781 6.82031 54.75 7.14844C55.4375 7.46094 56.1719 7.82031 56.9531 8.22656C57.7344 8.61719 58.4531 9.05469 59.1094 9.53906C59.7812 10.0078 60.3438 10.5234 60.7969 11.0859C61.2656 11.6328 61.5234 12.2188 61.5703 12.8438C61.6172 13.6406 61.6094 14.3594 61.5469 15C61.4844 15.6406 61.2656 16.1875 60.8906 16.6406C60.5156 17.0938 59.9297 17.4531 59.1328 17.7188C58.3516 17.9844 57.2656 18.1484 55.875 18.2109C54.4375 18.2734 53.2578 18.1953 52.3359 17.9766C51.4141 17.7578 50.6641 17.4609 50.0859 17.0859C49.5234 16.7109 49.1016 16.2969 48.8203 15.8438C48.5547 15.3906 48.3594 14.9609 48.2344 14.5547C48.1094 14.1328 48.0234 13.7734 47.9766 13.4766C47.9297 13.1641 47.8516 12.9766 47.7422 12.9141C47.6172 12.8359 47.4922 12.7656 47.3672 12.7031C47.2578 12.6406 47.1406 12.5859 47.0156 12.5391C46.8906 12.4766 46.7656 12.4219 46.6406 12.375L53.4609 11.2734C53.0703 11.5859 52.7656 11.875 52.5469 12.1406C52.3438 12.4062 52.1875 12.6406 52.0781 12.8438C51.9531 13.0781 51.8672 13.2969 51.8203 13.5C51.7891 13.7188 51.8594 13.9922 52.0312 14.3203C52.2031 14.6484 52.4375 14.9688 52.7344 15.2812C53.0469 15.5781 53.4062 15.8281 53.8125 16.0312C54.2188 16.2344 54.6406 16.3203 55.0781 16.2891C55.625 16.2422 56.0703 16.1094 56.4141 15.8906C56.7578 15.6562 57.0156 15.3672 57.1875 15.0234C57.375 14.6797 57.4844 14.3047 57.5156 13.8984C57.5469 13.4922 57.5078 13.0938 57.3984 12.7031C57.3047 12.2969 57.1484 11.9219 56.9297 11.5781C56.7109 11.2188 56.4531 10.9219 56.1562 10.6875C55.8906 10.5 55.4766 10.3203 54.9141 10.1484C54.3672 9.97656 53.75 9.78906 53.0625 9.58594C52.3906 9.38281 51.6953 9.14844 50.9766 8.88281C50.2734 8.61719 49.6328 8.28906 49.0547 7.89844C48.4922 7.50781 48.0391 7.04688 47.6953 6.51562C47.3672 5.98438 47.2422 5.34375 47.3203 4.59375C47.3828 3.95312 47.5859 3.42188 47.9297 3C48.2891 2.5625 48.7344 2.21875 49.2656 1.96875C49.8125 1.70312 50.4141 1.50781 51.0703 1.38281C51.7422 1.25781 52.4219 1.1875 53.1094 1.17188C53.8125 1.14062 54.5 1.14844 55.1719 1.19531C55.8594 1.24219 56.4766 1.29688 57.0234 1.35938C57.5703 1.42187 58.0312 1.48438 58.4062 1.54688C58.7969 1.59375 59.0391 1.625 59.1328 1.64062C59.5391 1.67188 59.9453 1.66406 60.3516 1.61719C60.7109 1.58594 61.1016 1.51562 61.5234 1.40625C61.9609 1.28125 62.3828 1.09375 62.7891 0.84375ZM61.9453 1.35938C62.4922 1.42187 62.9531 1.46875 63.3281 1.5C63.7031 1.51562 64 1.53125 64.2188 1.54688C64.4844 1.5625 64.6953 1.57031 64.8516 1.57031C65.1172 1.57031 65.4219 1.5625 65.7656 1.54688C66.0625 1.53125 66.4062 1.50781 66.7969 1.47656C67.2031 1.42969 67.6406 1.35938 68.1094 1.26562C67.8906 1.5 67.7109 1.72656 67.5703 1.94531C67.4297 2.14844 67.3203 2.33594 67.2422 2.50781C67.1484 2.69531 67.0703 2.86719 67.0078 3.02344C66.9453 3.22656 66.875 3.53906 66.7969 3.96094C66.7188 4.32031 66.6328 4.82812 66.5391 5.48438C66.4609 6.14062 66.3594 7 66.2344 8.0625C66.7656 8.07812 67.2266 8.08594 67.6172 8.08594C68.0078 8.07031 68.3359 8.0625 68.6016 8.0625H69.375C69.5938 8.04688 69.8438 8.03125 70.125 8.01562C70.5938 8 71.3047 7.95312 72.2578 7.875C72.3359 7.15625 72.375 6.53906 72.375 6.02344C72.3906 5.49219 72.3828 5.04688 72.3516 4.6875C72.3203 4.28125 72.2734 3.9375 72.2109 3.65625C72.1641 3.5 72.0938 3.3125 72 3.09375C71.9219 2.90625 71.8125 2.67969 71.6719 2.41406C71.5469 2.13281 71.375 1.79687 71.1562 1.40625C71.5625 1.46875 71.9219 1.51562 72.2344 1.54688C72.5625 1.5625 72.8359 1.57813 73.0547 1.59375C73.3047 1.60937 73.5156 1.61719 73.6875 1.61719C73.8594 1.61719 74.0859 1.60937 74.3672 1.59375C74.6016 1.57813 74.8906 1.57031 75.2344 1.57031C75.5781 1.55469 76 1.53125 76.5 1.5C76.375 1.71875 76.2656 1.94531 76.1719 2.17969C76.0781 2.41406 76 2.625 75.9375 2.8125C75.875 3.03125 75.8125 3.25 75.75 3.46875C75.6719 3.79688 75.6016 4.27344 75.5391 4.89844C75.4922 5.52344 75.4453 6.21875 75.3984 6.98438C75.3672 7.75 75.3359 8.54688 75.3047 9.375C75.2891 10.2031 75.2734 10.9844 75.2578 11.7188C75.2578 12.4531 75.2656 13.1094 75.2812 13.6875C75.2969 14.25 75.3281 14.6484 75.375 14.8828C75.4219 15.1641 75.5 15.4531 75.6094 15.75C75.7031 16.0156 75.8281 16.3047 75.9844 16.6172C76.1406 16.9141 76.3438 17.1953 76.5938 17.4609L70.9453 17.8828C71.1797 17.6641 71.3672 17.4531 71.5078 17.25C71.6484 17.0312 71.7578 16.8438 71.8359 16.6875C71.9141 16.5156 71.9688 16.3516 72 16.1953C72.0156 16.0078 72.0391 15.6797 72.0703 15.2109C72.1016 14.8203 72.1328 14.2656 72.1641 13.5469C72.1953 12.8281 72.2266 11.875 72.2578 10.6875C72.0391 10.6875 71.7734 10.6953 71.4609 10.7109C71.1641 10.7109 70.8828 10.7188 70.6172 10.7344C70.3047 10.75 69.9766 10.7578 69.6328 10.7578C69.2891 10.7734 68.9297 10.7891 68.5547 10.8047C68.2422 10.8359 67.8906 10.8672 67.5 10.8984C67.125 10.9141 66.75 10.9375 66.375 10.9688C66.3438 11.625 66.3438 12.2031 66.375 12.7031C66.4062 13.1875 66.4531 13.6016 66.5156 13.9453C66.5781 14.3516 66.6562 14.7031 66.75 15C66.8438 15.2812 66.9453 15.5625 67.0547 15.8438C67.1484 16.0938 67.2578 16.3594 67.3828 16.6406C67.5234 16.9219 67.6641 17.1719 67.8047 17.3906C67.5078 17.3594 67.2344 17.3359 66.9844 17.3203C66.7344 17.2891 66.5156 17.2578 66.3281 17.2266C66.1094 17.2109 65.8984 17.1953 65.6953 17.1797C65.4922 17.1797 65.25 17.1719 64.9688 17.1562C64.7188 17.1406 64.4062 17.1328 64.0312 17.1328C63.6562 17.1172 63.2188 17.1094 62.7188 17.1094C63.0156 16.8125 63.25 16.5234 63.4219 16.2422C63.6094 15.9453 63.7422 15.6797 63.8203 15.4453C63.9141 15.1641 63.9766 14.9062 64.0078 14.6719C64.0234 14.4688 64.0312 14.0859 64.0312 13.5234C64.0469 12.9609 64.0469 12.3203 64.0312 11.6016C64.0312 10.8672 64.0234 10.1016 64.0078 9.30469C63.9922 8.49219 63.9688 7.73438 63.9375 7.03125C63.9219 6.32812 63.8984 5.72656 63.8672 5.22656C63.8516 4.71094 63.8359 4.39062 63.8203 4.26562C63.7422 3.98438 63.625 3.67969 63.4688 3.35156C63.3281 3.08594 63.1406 2.78125 62.9062 2.4375C62.6719 2.07812 62.3516 1.71875 61.9453 1.35938ZM91.6172 0.679688C92.1641 0.679688 92.6562 0.773438 93.0938 0.960938C93.5469 1.13281 93.9609 1.32812 94.3359 1.54688C94.7266 1.76563 95.0938 1.96875 95.4375 2.15625C95.7812 2.32813 96.1328 2.41406 96.4922 2.41406C96.7734 2.39844 97.0938 2.35937 97.4531 2.29688C97.7656 2.23438 98.125 2.14063 98.5312 2.01562C98.9531 1.875 99.4219 1.67188 99.9375 1.40625C99.4219 1.90625 99 2.32813 98.6719 2.67188C98.3594 3 98.1172 3.27344 97.9453 3.49219C97.7422 3.74219 97.5938 3.9375 97.5 4.07812C97.4062 4.25 97.2656 4.50781 97.0781 4.85156C96.9062 5.16406 96.6719 5.58594 96.375 6.11719C96.0781 6.63281 95.7031 7.3125 95.25 8.15625C95.25 7.07812 95.1406 6.24219 94.9219 5.64844C94.7188 5.05469 94.4922 4.60156 94.2422 4.28906C93.9453 3.92969 93.6094 3.70312 93.2344 3.60938C92.8906 3.5625 92.5469 3.625 92.2031 3.79688C91.8594 3.95312 91.5156 4.1875 91.1719 4.5C90.8438 4.8125 90.5234 5.1875 90.2109 5.625C89.9141 6.04688 89.6406 6.49219 89.3906 6.96094C89.1562 7.42969 88.9609 7.90625 88.8047 8.39062C88.6484 8.85938 88.5469 9.29688 88.5 9.70312C88.4531 10.0625 88.4453 10.4844 88.4766 10.9688C88.5078 11.4375 88.5781 11.9219 88.6875 12.4219C88.7969 12.9062 88.9375 13.3828 89.1094 13.8516C89.2812 14.3203 89.4922 14.7422 89.7422 15.1172C90.0078 15.4766 90.3047 15.7734 90.6328 16.0078C90.9609 16.2266 91.3359 16.3281 91.7578 16.3125C92.2266 16.2812 92.6875 16.1406 93.1406 15.8906C93.5312 15.6875 93.9297 15.375 94.3359 14.9531C94.7422 14.5156 95.0938 13.8984 95.3906 13.1016L98.8594 13.7344C97.8594 14.9531 96.8828 15.8672 95.9297 16.4766C94.9922 17.0859 94.1484 17.5156 93.3984 17.7656C92.5234 18.0469 91.6953 18.1797 90.9141 18.1641C89.9297 18.0547 89.0078 17.7578 88.1484 17.2734C87.2891 16.7891 86.5469 16.2031 85.9219 15.5156C85.3125 14.8125 84.8359 14.0469 84.4922 13.2188C84.1484 12.3906 84 11.5781 84.0469 10.7812C84.0781 10.25 84.1875 9.63281 84.375 8.92969C84.5625 8.21094 84.8125 7.47656 85.125 6.72656C85.4531 5.97656 85.8438 5.24219 86.2969 4.52344C86.75 3.80469 87.25 3.16406 87.7969 2.60156C88.3438 2.02344 88.9375 1.5625 89.5781 1.21875C90.2344 0.859375 90.9141 0.679688 91.6172 0.679688ZM99.2109 1.00781C99.6641 1.08594 100.062 1.14062 100.406 1.17188C100.766 1.20313 101.062 1.22656 101.297 1.24219C101.578 1.25781 101.82 1.26562 102.023 1.26562C102.227 1.26562 102.516 1.25 102.891 1.21875C103.203 1.1875 103.609 1.14844 104.109 1.10156C104.625 1.05469 105.258 0.976562 106.008 0.867188C105.789 0.929687 105.586 1.10938 105.398 1.40625C105.227 1.6875 105.07 1.99219 104.93 2.32031C104.758 2.71094 104.609 3.14062 104.484 3.60938C104.375 4.03125 104.234 4.60938 104.062 5.34375C103.906 6.07812 103.75 6.875 103.594 7.73438C103.453 8.59375 103.344 9.46875 103.266 10.3594C103.188 11.2344 103.172 12.0391 103.219 12.7734C103.281 13.5078 103.43 14.1172 103.664 14.6016C103.898 15.0703 104.258 15.3203 104.742 15.3516C105.477 15.4141 106.086 15.4219 106.57 15.375C107.07 15.3125 107.477 15.2266 107.789 15.1172C108.102 15.0078 108.344 14.8828 108.516 14.7422C108.688 14.5859 108.82 14.4375 108.914 14.2969C109.164 13.9375 109.422 13.4766 109.688 12.9141C109.953 12.3516 110.188 11.8125 110.391 11.2969C110.609 10.7812 110.789 10.3438 110.93 9.98438C111.07 9.625 111.141 9.45312 111.141 9.46875C111.141 9.5 111.133 9.67969 111.117 10.0078C111.117 10.3203 111.109 10.7031 111.094 11.1562C111.094 11.5938 111.086 12.0547 111.07 12.5391C111.07 13.0234 111.062 13.4375 111.047 13.7812C111.031 14.0625 111.016 14.375 111 14.7188C110.984 15.0156 110.969 15.3672 110.953 15.7734C110.953 16.1797 110.938 16.625 110.906 17.1094C110.25 17.0625 109.625 17.0312 109.031 17.0156C108.438 17 107.914 16.9922 107.461 16.9922C106.93 16.9922 106.438 17 105.984 17.0156C105.5 17.0312 104.938 17.0547 104.297 17.0859C103.75 17.1172 103.07 17.1562 102.258 17.2031C101.445 17.2344 100.508 17.2812 99.4453 17.3438C99.5703 17.125 99.6719 16.9219 99.75 16.7344C99.8438 16.5469 99.9141 16.3906 99.9609 16.2656C100.023 16.1094 100.062 15.9766 100.078 15.8672C100.172 15.3672 100.25 14.7344 100.312 13.9688C100.375 13.1875 100.422 12.3594 100.453 11.4844C100.5 10.6094 100.523 9.71875 100.523 8.8125C100.539 7.89062 100.539 7.03906 100.523 6.25781C100.508 5.47656 100.477 4.79688 100.43 4.21875C100.398 3.64062 100.352 3.24219 100.289 3.02344C100.211 2.77344 100.117 2.52344 100.008 2.27344C99.9141 2.05469 99.7969 1.83594 99.6562 1.61719C99.5312 1.38281 99.3828 1.17969 99.2109 1.00781ZM119.461 0.328125C120.305 0.359375 121.156 0.515625 122.016 0.796875C122.891 1.0625 123.695 1.5 124.43 2.10938C125.164 2.70313 125.789 3.47656 126.305 4.42969C126.82 5.36719 127.141 6.51562 127.266 7.875C127.375 8.98438 127.234 10.0859 126.844 11.1797C126.469 12.2578 125.945 13.25 125.273 14.1562C124.602 15.0625 123.828 15.8359 122.953 16.4766C122.078 17.1016 121.203 17.5156 120.328 17.7188C119.797 17.8438 119.211 17.8594 118.57 17.7656C117.945 17.6562 117.305 17.4609 116.648 17.1797C116.008 16.8828 115.375 16.5078 114.75 16.0547C114.141 15.6016 113.586 15.0859 113.086 14.5078C112.586 13.9141 112.164 13.2734 111.82 12.5859C111.492 11.8984 111.289 11.1797 111.211 10.4297C111.133 9.80469 111.125 9.11719 111.188 8.36719C111.266 7.60156 111.414 6.84375 111.633 6.09375C111.867 5.32812 112.188 4.59375 112.594 3.89062C113.016 3.17188 113.547 2.54687 114.188 2.01562C114.828 1.46875 115.578 1.04687 116.438 0.75C117.312 0.4375 118.32 0.296875 119.461 0.328125ZM115.266 9.82031C115.047 11.4922 115.203 12.8359 115.734 13.8516C116.281 14.8672 117.102 15.4844 118.195 15.7031C118.727 15.8125 119.234 15.7031 119.719 15.375C120.219 15.0312 120.672 14.5391 121.078 13.8984C121.484 13.2578 121.836 12.5078 122.133 11.6484C122.43 10.7891 122.648 9.89062 122.789 8.95312C122.93 8.01562 122.938 7.17188 122.812 6.42188C122.703 5.65625 122.508 5.00781 122.227 4.47656C121.945 3.92969 121.602 3.50781 121.195 3.21094C120.805 2.91406 120.398 2.75 119.977 2.71875C119.242 2.67188 118.602 2.86719 118.055 3.30469C117.508 3.72656 117.047 4.28125 116.672 4.96875C116.297 5.65625 115.992 6.42969 115.758 7.28906C115.539 8.14844 115.375 8.99219 115.266 9.82031ZM143.203 0.84375C142.984 1.34375 142.789 1.78125 142.617 2.15625C142.445 2.53125 142.297 2.85156 142.172 3.11719C142.031 3.41406 141.914 3.67969 141.82 3.91406C141.742 4.08594 141.641 4.32031 141.516 4.61719C141.391 4.88281 141.234 5.23438 141.047 5.67188C140.875 6.09375 140.648 6.64062 140.367 7.3125C140.227 6.73438 140.055 6.22656 139.852 5.78906C139.648 5.35156 139.43 4.96875 139.195 4.64062C138.961 4.3125 138.711 4.04688 138.445 3.84375C138.195 3.625 137.945 3.44531 137.695 3.30469C137.117 2.99219 136.508 2.82031 135.867 2.78906C135.023 2.83594 134.359 2.97656 133.875 3.21094C133.406 3.42969 133.062 3.6875 132.844 3.98438C132.625 4.26562 132.508 4.5625 132.492 4.875C132.477 5.17188 132.516 5.42188 132.609 5.625C132.688 5.8125 132.961 6.03125 133.43 6.28125C133.914 6.53125 134.492 6.82031 135.164 7.14844C135.852 7.46094 136.586 7.82031 137.367 8.22656C138.148 8.61719 138.867 9.05469 139.523 9.53906C140.195 10.0078 140.758 10.5234 141.211 11.0859C141.68 11.6328 141.938 12.2188 141.984 12.8438C142.031 13.6406 142.023 14.3594 141.961 15C141.898 15.6406 141.68 16.1875 141.305 16.6406C140.93 17.0938 140.344 17.4531 139.547 17.7188C138.766 17.9844 137.68 18.1484 136.289 18.2109C134.852 18.2734 133.672 18.1953 132.75 17.9766C131.828 17.7578 131.078 17.4609 130.5 17.0859C129.938 16.7109 129.516 16.2969 129.234 15.8438C128.969 15.3906 128.773 14.9609 128.648 14.5547C128.523 14.1328 128.438 13.7734 128.391 13.4766C128.344 13.1641 128.266 12.9766 128.156 12.9141C128.031 12.8359 127.906 12.7656 127.781 12.7031C127.672 12.6406 127.555 12.5859 127.43 12.5391C127.305 12.4766 127.18 12.4219 127.055 12.375L133.875 11.2734C133.484 11.5859 133.18 11.875 132.961 12.1406C132.758 12.4062 132.602 12.6406 132.492 12.8438C132.367 13.0781 132.281 13.2969 132.234 13.5C132.203 13.7188 132.273 13.9922 132.445 14.3203C132.617 14.6484 132.852 14.9688 133.148 15.2812C133.461 15.5781 133.82 15.8281 134.227 16.0312C134.633 16.2344 135.055 16.3203 135.492 16.2891C136.039 16.2422 136.484 16.1094 136.828 15.8906C137.172 15.6562 137.43 15.3672 137.602 15.0234C137.789 14.6797 137.898 14.3047 137.93 13.8984C137.961 13.4922 137.922 13.0938 137.812 12.7031C137.719 12.2969 137.562 11.9219 137.344 11.5781C137.125 11.2188 136.867 10.9219 136.57 10.6875C136.305 10.5 135.891 10.3203 135.328 10.1484C134.781 9.97656 134.164 9.78906 133.477 9.58594C132.805 9.38281 132.109 9.14844 131.391 8.88281C130.688 8.61719 130.047 8.28906 129.469 7.89844C128.906 7.50781 128.453 7.04688 128.109 6.51562C127.781 5.98438 127.656 5.34375 127.734 4.59375C127.797 3.95312 128 3.42188 128.344 3C128.703 2.5625 129.148 2.21875 129.68 1.96875C130.227 1.70312 130.828 1.50781 131.484 1.38281C132.156 1.25781 132.836 1.1875 133.523 1.17188C134.227 1.14062 134.914 1.14844 135.586 1.19531C136.273 1.24219 136.891 1.29688 137.438 1.35938C137.984 1.42187 138.445 1.48438 138.82 1.54688C139.211 1.59375 139.453 1.625 139.547 1.64062C139.953 1.67188 140.359 1.66406 140.766 1.61719C141.125 1.58594 141.516 1.51562 141.938 1.40625C142.375 1.28125 142.797 1.09375 143.203 0.84375ZM141.891 1.99219C142.984 2.02344 143.891 2.04688 144.609 2.0625C145.344 2.0625 145.938 2.0625 146.391 2.0625H147.633H154.617C154.648 2.375 154.672 2.67969 154.688 2.97656C154.719 3.25781 154.734 3.50781 154.734 3.72656C154.734 3.99219 154.727 4.23438 154.711 4.45312C154.695 4.67188 154.672 4.90625 154.641 5.15625C154.609 5.375 154.578 5.60938 154.547 5.85938C154.516 6.10938 154.461 6.36719 154.383 6.63281C154.164 5.78906 153.867 5.14844 153.492 4.71094C153.133 4.27344 152.766 3.95312 152.391 3.75C151.953 3.51562 151.492 3.39062 151.008 3.375C150.367 3.40625 149.867 3.46094 149.508 3.53906C149.148 3.61719 148.867 3.72656 148.664 3.86719C148.461 4.00781 148.305 4.17188 148.195 4.35938C148.102 4.53125 148 4.72656 147.891 4.94531C147.797 5.13281 147.711 5.42188 147.633 5.8125C147.555 6.14062 147.477 6.58594 147.398 7.14844C147.336 7.71094 147.266 8.4375 147.188 9.32812C147.609 9.20312 147.945 9.08594 148.195 8.97656C148.461 8.86719 148.672 8.77344 148.828 8.69531C149 8.60156 149.125 8.51562 149.203 8.4375C149.266 8.34375 149.359 8.17188 149.484 7.92188C149.578 7.70312 149.703 7.40625 149.859 7.03125C150.031 6.65625 150.234 6.14062 150.469 5.48438C150.5 6.20312 150.516 6.80469 150.516 7.28906C150.516 7.75781 150.523 8.14062 150.539 8.4375C150.539 8.78125 150.547 9.05469 150.562 9.25781V10.1484C150.562 10.4766 150.562 10.9219 150.562 11.4844C150.578 12.0312 150.602 12.7266 150.633 13.5703C150.445 12.9922 150.273 12.5391 150.117 12.2109C149.977 11.8672 149.852 11.6094 149.742 11.4375C149.617 11.2344 149.508 11.0938 149.414 11.0156C149.305 10.9844 149.156 10.9531 148.969 10.9219C148.797 10.9062 148.578 10.8984 148.312 10.8984C148.062 10.8984 147.742 10.9375 147.352 11.0156C147.305 11.875 147.297 12.5703 147.328 13.1016C147.375 13.6172 147.438 14.0156 147.516 14.2969C147.594 14.625 147.688 14.8594 147.797 15C147.938 15.1406 148.219 15.2578 148.641 15.3516C149.062 15.4297 149.539 15.4609 150.07 15.4453C150.617 15.4141 151.172 15.3203 151.734 15.1641C152.297 15.0078 152.797 14.75 153.234 14.3906C153.562 14.0938 153.914 13.7188 154.289 13.2656C154.602 12.875 154.945 12.3828 155.32 11.7891C155.711 11.1953 156.094 10.4766 156.469 9.63281C156.406 10.3359 156.359 10.9219 156.328 11.3906C156.312 11.8438 156.289 12.2109 156.258 12.4922C156.227 12.8203 156.203 13.0703 156.188 13.2422C156.188 13.4297 156.164 13.6953 156.117 14.0391C156.086 14.3359 156.031 14.7422 155.953 15.2578C155.891 15.7578 155.805 16.3984 155.695 17.1797C154.961 17.1953 154.266 17.2109 153.609 17.2266C152.953 17.2266 152.375 17.2344 151.875 17.25C151.281 17.2656 150.734 17.2812 150.234 17.2969C149.719 17.2969 149.148 17.3203 148.523 17.3672C147.977 17.3984 147.328 17.4453 146.578 17.5078C145.844 17.5703 145.031 17.6562 144.141 17.7656C144.219 16.7031 144.273 15.7031 144.305 14.7656C144.352 13.8125 144.383 12.9766 144.398 12.2578C144.414 11.4141 144.414 10.6328 144.398 9.91406C144.477 8.11719 144.445 6.66406 144.305 5.55469C144.164 4.44531 144 3.73438 143.812 3.42188C143.719 3.3125 143.586 3.17969 143.414 3.02344C143.273 2.89844 143.078 2.75 142.828 2.57812C142.578 2.40625 142.266 2.21094 141.891 1.99219ZM156 0.890625C157.047 1.01563 157.953 1.10938 158.719 1.17188C159.484 1.21875 160.117 1.25781 160.617 1.28906C161.195 1.32031 161.68 1.32812 162.07 1.3125C162.477 1.29688 163.031 1.25781 163.734 1.19531C164.328 1.14844 165.109 1.08594 166.078 1.00781C167.047 0.914062 168.258 0.789062 169.711 0.632812C169.727 0.992188 169.734 1.34375 169.734 1.6875C169.75 2.01562 169.766 2.30469 169.781 2.55469C169.797 2.85156 169.805 3.125 169.805 3.375C169.805 3.64062 169.789 3.97656 169.758 4.38281C169.727 4.72656 169.672 5.16406 169.594 5.69531C169.531 6.21094 169.43 6.82812 169.289 7.54688C169.07 6.70312 168.859 6.02344 168.656 5.50781C168.453 4.97656 168.266 4.55469 168.094 4.24219C167.906 3.88281 167.719 3.60938 167.531 3.42188C167.328 3.28125 167.086 3.16406 166.805 3.07031C166.555 2.99219 166.234 2.92969 165.844 2.88281C165.469 2.83594 165.023 2.84375 164.508 2.90625C164.43 4.96875 164.375 6.64062 164.344 7.92188C164.312 9.20312 164.289 10.2031 164.273 10.9219C164.258 11.7812 164.25 12.3984 164.25 12.7734C164.266 13.3047 164.352 13.8281 164.508 14.3438C164.633 14.7812 164.836 15.2344 165.117 15.7031C165.398 16.1719 165.805 16.5859 166.336 16.9453H163.477C163.211 16.9453 162.883 16.9609 162.492 16.9922C162.164 17.0234 161.742 17.0547 161.227 17.0859C160.727 17.1172 160.141 17.1719 159.469 17.25C159.703 16.8438 159.891 16.4766 160.031 16.1484C160.172 15.8203 160.281 15.5391 160.359 15.3047C160.453 15.0234 160.523 14.7734 160.57 14.5547C160.586 14.2422 160.625 13.6094 160.688 12.6562C160.703 12.2656 160.719 11.7812 160.734 11.2031C160.766 10.625 160.797 9.9375 160.828 9.14062C160.875 8.34375 160.914 7.42969 160.945 6.39844C160.992 5.35156 161.039 4.17188 161.086 2.85938C160.805 2.78125 160.539 2.78906 160.289 2.88281C160.039 2.96094 159.82 3.0625 159.633 3.1875C159.414 3.34375 159.203 3.53125 159 3.75C158.797 4.01562 158.57 4.35938 158.32 4.78125C158.102 5.14062 157.852 5.61719 157.57 6.21094C157.289 6.78906 156.969 7.50781 156.609 8.36719C156.531 7.46094 156.477 6.71875 156.445 6.14062C156.414 5.54688 156.391 5.08594 156.375 4.75781C156.359 4.36719 156.352 4.07812 156.352 3.89062C156.352 3.71875 156.336 3.49219 156.305 3.21094C156.273 2.97656 156.234 2.67188 156.188 2.29688C156.141 1.90625 156.078 1.4375 156 0.890625Z" fill="#25A5DE"/>
</svg>
