<svg width="96" height="87" viewBox="0 0 96 87" fill="none" xmlns="http://www.w3.org/2000/svg">
<g clip-path="url(#clip0_73_117)">
<path d="M86.9602 87.0013C77.0959 79.9711 63.5846 75.6211 48.6673 75.6211C33.772 75.6211 20.2608 79.9711 10.3965 87.0013H86.9602Z" fill="white"/>
<path d="M91.2449 82.9331C89.2896 83.1967 63.2338 82.9331 63.2338 82.9331L62.6187 80.2089L60.2459 69.4878C60.2459 69.4878 69.8466 69.9711 69.2534 69.2461C68.6603 68.5431 67.6057 57.5144 62.2671 55.8447C56.9285 54.175 48.668 53.9334 48.668 53.9334V32.9744L56.2914 27.8555C59.9823 32.1616 79.667 43.1244 82.0617 48.3751C84.4563 53.6038 93.8593 66.9393 94.7161 72.168C95.5949 77.4187 93.2002 82.6914 91.2449 82.9331Z" fill="white"/>
<path style="mix-blend-mode:multiply" d="M91.2453 82.9331C89.29 83.1967 63.2342 82.9331 63.2342 82.9331L62.6191 80.2089C67.4523 80.0112 74.5265 79.6377 81.0295 79.0884C92.3218 78.1218 94.7165 72.168 94.7165 72.168C95.5953 77.4187 93.2006 82.6914 91.2453 82.9331Z" fill="white"/>
<path style="mix-blend-mode:multiply" d="M86.9612 69.8629C86.9612 69.8629 81.0734 57.0547 75.0977 53.7812L76.987 68.5009L86.9612 69.8629Z" fill="white"/>
<path d="M75.0965 71.114C75.0965 71.114 83.3351 68.5656 90.7827 72.2564C90.7827 72.2564 88.8934 68.5216 80.9624 66.8959C80.9624 66.8959 75.9094 50.265 69.9337 49.496C63.958 48.7051 63.6504 72.2564 63.6504 72.2564L75.0965 71.114Z" fill="white"/>
<path d="M39.1118 27.8555C35.4209 32.1616 15.7362 43.1244 13.3416 48.3751C10.9469 53.6038 1.54394 66.9393 0.687131 72.168C-0.191649 77.4187 2.20302 82.6914 4.15831 82.9331C6.1136 83.1967 32.1694 82.9331 32.1694 82.9331L35.1573 69.4878C35.1573 69.4878 25.5566 69.9711 26.1498 69.2461C26.743 68.5431 27.7975 57.5144 33.1361 55.8447C38.4747 54.175 46.7352 53.9334 46.7352 53.9334V32.9744L39.1118 27.8555Z" fill="white"/>
<path style="mix-blend-mode:multiply" d="M4.15831 82.9331C6.1136 83.1967 32.1694 82.9331 32.1694 82.9331L32.7846 80.2089C27.9513 80.0112 20.8771 79.6377 14.3741 79.0884C3.0818 78.1218 0.687131 72.168 0.687131 72.168C-0.191649 77.4187 2.20302 82.6914 4.15831 82.9331Z" fill="white"/>
<path style="mix-blend-mode:multiply" d="M8.44141 69.8629C8.44141 69.8629 14.3293 57.0547 20.305 53.7812L18.4156 68.5009L8.44141 69.8629Z" fill="url(#paint0_linear_73_117)"/>
<path d="M21.0084 71.114C21.0084 71.114 12.7699 68.5656 5.32227 72.2564C5.32227 72.2564 7.21165 68.5216 15.1206 66.8959C15.1206 66.8959 20.1736 50.265 26.1713 49.496C32.147 48.7051 32.4326 72.2564 32.4326 72.2564L21.0084 71.114Z" fill="#00042D"/>
<path d="M67.4964 27.0681C67.2108 33.2854 66.1343 46.4012 61.7624 49.9603C58.489 52.6186 52.5572 50.9489 48.1193 50.9489C42.9345 50.9489 37.6838 53.4534 34.2126 49.9603C30.6975 46.4452 28.9839 32.5165 28.7422 27.0681C32.1475 19.7742 39.5512 14.6992 48.1193 14.6992C56.7094 14.6992 64.1131 19.7742 67.4964 27.0681Z" fill="white"/>
<path style="mix-blend-mode:multiply" d="M29.5996 20.8915C29.5996 30.0308 31.9284 39.6095 33.7518 43.8496C35.5973 48.0897 41.7048 55.801 48.1419 56.9434C54.5789 58.0858 60.8842 48.7488 62.9054 43.2125C66.2008 34.2929 66.5084 19.6612 66.5084 19.6612C66.5084 19.6612 56.007 10.1044 46.1866 11.0052C36.3882 11.884 29.5996 20.8915 29.5996 20.8915Z" fill="white"/>
<path d="M33.5762 18.6531C33.5762 25.7273 35.3997 33.131 36.8497 36.4045C38.2777 39.6999 42.3201 46.5544 48.12 46.5544C53.2389 46.5544 58.1162 40.2052 59.698 35.9431C62.2904 29.0228 62.532 17.6865 62.532 17.6865C62.532 17.6865 54.2935 10.3047 46.6042 10.9858C38.8929 11.6668 33.5762 18.6531 33.5762 18.6531Z" fill="#00042D"/>
<path d="M48.1197 0C40.9796 0 28.7207 14.7635 28.7207 26.0778C28.7207 26.4147 28.728 26.7442 28.7426 27.0664C32.1479 19.7726 39.5516 14.6976 48.1197 14.6976C56.7098 14.6976 64.1135 19.7726 67.4968 27.0664C67.5115 26.7442 67.5188 26.4147 67.5188 26.0778C67.5188 14.7635 55.5015 0 48.1197 0Z" fill="white"/>
<path d="M71.4301 81.7474H24.8108C22.6139 81.7474 20.7684 80.0557 20.5927 77.8587L17.9563 47.5628C17.7366 45.0802 19.6919 42.9492 22.1745 42.9492H74.0664C76.571 42.9492 78.5043 45.0802 78.3066 47.5628L75.6702 77.8587C75.4725 80.0557 73.649 81.7474 71.4301 81.7474Z" fill="white"/>
<path d="M71.4301 83.0676H24.8108C22.6139 83.0676 20.7684 81.376 20.5927 79.179L17.9563 48.8831C17.7366 46.4005 19.6919 44.2695 22.1745 44.2695H74.0664C76.571 44.2695 78.5043 46.4005 78.3066 48.8831L75.6702 79.179C75.4725 81.376 73.649 83.0676 71.4301 83.0676Z" fill="black"/>
<g style="mix-blend-mode:multiply">
<path d="M24.7449 44.2695H22.1745C19.6919 44.2695 17.7366 46.4005 17.9563 48.8831L20.5927 79.179C20.7684 81.376 22.6139 83.0676 24.8108 83.0676H26.6343L24.7449 44.2695Z" fill="white"/>
<path d="M74.0653 44.2695H71.4948L69.6055 83.0676H71.4289C73.6479 83.0676 75.4713 81.376 75.669 79.179L78.3054 48.8831C78.5031 46.4005 76.5698 44.2695 74.0653 44.2695Z" fill="white"/>
</g>
</g>
<defs>
<linearGradient id="paint0_linear_73_117" x1="0.163298" y1="50.4308" x2="4.02574" y2="73.0533" gradientUnits="userSpaceOnUse">
<stop stop-color="#F4D63B" stop-opacity="0"/>
<stop offset="1" stop-color="#5C1CB2"/>
</linearGradient>
<clipPath id="clip0_73_117">
<rect width="95" height="87" fill="white" transform="translate(0.5)"/>
</clipPath>
</defs>
</svg>
