<svg width="99" height="97" viewBox="0 0 99 97" fill="none" xmlns="http://www.w3.org/2000/svg">
<path d="M71.9468 4.28348L69.4691 0L66.9914 4.28348L64.5137 8.58796H67.0754V62.0895H71.8628V8.58796H74.4245L71.9468 4.28348Z" fill="white"/>
<path d="M82.1069 20.1155L79.6292 15.832L77.1515 20.1155L74.6738 24.399H77.2355V68.9556H82.0229V24.399H84.5846L82.1069 20.1155Z" fill="white"/>
<path d="M61.9095 13.0391V50.4775L14.6022 76.5774L12.9434 75.0656V40.0628L61.9095 13.0391Z" fill="white"/>
<path d="M59.9341 16.3555V49.3216L59.8501 49.3636L47.6715 56.0828L14.8945 74.1826V41.2375L17.6662 39.7047L29.8447 32.9855L31.5035 32.0617L35.997 29.584L59.9341 16.3555Z" fill="black"/>
<path d="M91.1584 66.6881L46.3498 94.3417L43.0951 94.2368L18.3811 80.5254L18.6331 80.2734L14.6016 76.5779L61.9089 50.457L66.5493 53.0397L69.6569 54.7615L74.9063 57.6592L77.9929 59.381L83.2423 62.2996L86.3289 64.0214L91.1584 66.6881Z" fill="white"/>
<path d="M16.9961 77.505L61.9097 52.707L87.2746 66.7963L44.8387 92.9801L16.9961 77.505Z" fill="black"/>
<path d="M53.5527 77.8384L67.327 69.5234L75.474 74.0378L61.8677 82.4368L53.5527 77.8384Z" fill="white"/>
<path d="M43.0964 94.2386L41.0807 94.1756L17.6895 81.1992L18.3824 80.5273L43.0964 94.2386Z" fill="url(#paint0_linear_73_161)"/>
<path d="M91.1602 66.6875V67.9053L48.0104 94.3831L46.3516 94.3411L91.1602 66.6875Z" fill="url(#paint1_linear_73_161)"/>
<path style="mix-blend-mode:screen" d="M59.8499 49.3663L47.6714 56.0855L17.666 39.7075L29.8445 32.9883L59.8499 49.3663Z" fill="white"/>
<path style="mix-blend-mode:screen" d="M59.9364 42.6464V46.8878V47.6018L31.5059 32.0636L35.9993 29.5859L59.9364 42.6464Z" fill="white"/>
<path d="M46.8321 92.8707C27.2625 92.8707 11.4094 77.0176 11.4094 57.4689C11.4094 37.8993 27.2625 22.0462 46.8321 22.0462C47.42 22.0462 47.987 22.0672 48.5749 22.0882L53.9503 19.1276C51.6405 18.6866 49.2678 18.4766 46.8321 18.4766C25.2887 18.4766 7.83984 35.9255 7.83984 57.4689C7.83984 78.9913 25.2887 96.4402 46.8321 96.4402C61.8033 96.4402 74.8007 87.9992 81.3309 75.6107L74.0658 80.0622C67.5776 87.8943 57.7928 92.8707 46.8321 92.8707Z" fill="white"/>
<defs>
<linearGradient id="paint0_linear_73_161" x1="26.6842" y1="95.1499" x2="26.6842" y2="81.8411" gradientUnits="userSpaceOnUse">
<stop stop-color="#AA51E0"/>
<stop offset="1" stop-color="#461885"/>
</linearGradient>
<linearGradient id="paint1_linear_73_161" x1="73.428" y1="64.4137" x2="94.9947" y2="77.0596" gradientUnits="userSpaceOnUse">
<stop stop-color="#461885"/>
<stop offset="1" stop-color="#AA51E0"/>
</linearGradient>
</defs>
</svg>
