<svg width="124" height="87" viewBox="0 0 124 87" fill="none" xmlns="http://www.w3.org/2000/svg">
<g clip-path="url(#clip0_73_186)">
<path fill-rule="evenodd" clip-rule="evenodd" d="M40.8839 4.99199C39.1749 7.64539 38.3879 10.9734 37.6234 14.1889C37.0612 16.4826 35.4647 24.3753 35.2848 30.2442C34.94 30.3192 34.5877 30.3942 34.2279 30.4691C32.7663 30.7839 31.2372 31.2337 29.7981 31.7508C29.5133 31.8558 29.2359 31.9607 28.9661 32.0657C28.7112 32.1706 28.4564 32.2755 28.2015 32.3805C27.7518 32.5828 27.3246 32.7852 26.9423 32.9876L26.9198 33.0101H26.8973C26.3577 33.3249 24.7386 34.4717 21.4106 38.7216L21.3881 38.7441L21.3657 38.7666C18.2176 42.7917 14.4623 48.3233 10.2574 55.2492C1.15036 70.2026 0.340848 75.7343 0.520742 78.6126V78.635C0.535734 78.785 0.550726 78.9199 0.565718 79.0398C0.970472 82.5027 3.60138 84.9537 7.67143 85.6508C10.3698 86.5278 13.7203 87 17.4081 87C18.8472 87 20.3538 86.91 21.8829 86.7751C22.6699 86.7077 23.5918 86.6177 24.6037 86.5278C34.048 85.6958 51.7898 84.2791 51.9697 84.2567L52.7117 84.1892L53.3189 83.7395C63.0105 76.3414 63.5052 74.9473 63.7526 74.2727L64.8994 71.1246L61.5489 70.8547C61.459 70.8547 52.0596 70.1127 36.499 68.0439C35.9818 67.9765 35.2173 67.954 34.2504 67.954C32.4964 67.954 29.3933 68.0664 25.9529 68.4712C26.2377 68.3662 26.53 68.2763 26.8299 68.2013C29.1685 67.5268 31.1922 65.9977 32.5414 63.9289C35.1499 59.8589 36.6115 56.7108 37.0162 54.3047C37.1062 53.7426 37.376 52.0786 36.3416 46.2996C36.4166 46.2996 36.484 46.2996 36.544 46.2996C37.331 46.3895 38.298 46.4795 39.3548 46.4795C46.1007 46.4795 50.8904 42.297 53.971 33.7072C56.3995 26.8713 59.1204 22.5539 62.0436 20.8674C63.0555 20.2828 64.3822 19.9904 65.9787 19.9904C66.3385 19.9904 66.7058 20.0054 67.0806 20.0354C68.025 20.1029 68.8795 20.2603 69.5766 20.4177C68.6546 21.4521 68.0025 22.7563 67.7777 24.1954C67.4404 26.6464 66.8782 28.8726 66.361 30.0644C65.7989 31.3011 65.4616 32.4254 65.1692 33.4148C64.652 35.1463 64.3372 36.0907 63.3928 36.9452C60.582 39.5311 58.4683 40.8578 57.0741 40.8578C56.7368 40.8578 56.422 40.7904 55.9498 40.633L51.5649 39.1489L52.6443 43.6462C52.7342 43.961 53.5213 46.8392 57.2765 47.8511H57.299C58.3109 48.121 59.3452 48.2559 60.3571 48.2559C60.4471 48.2559 60.9418 48.2784 63.4828 48.4358C65.3491 48.5707 66.7883 50.0548 66.8782 51.8987C67.4179 64.4911 66.8557 67.999 66.6309 68.8534C66.1362 69.9778 62.3584 77.6681 60.8518 80.299C60.4246 81.0636 59.9524 81.8281 59.4352 82.6376L56.9617 86.5503H72.4773L72.6347 84.1442C72.6347 84.1217 72.7696 82.098 72.9046 79.1073C76.6598 82.1654 79.5381 84.459 79.583 84.504L80.7298 85.4259L82.124 84.8863C82.2589 84.8188 85.6544 83.4696 89.0723 81.9406C91.1186 80.9961 92.7601 80.1866 93.9069 79.512C95.2336 78.77 97.6621 77.3758 97.055 75.0147C96.6502 73.3732 90.7363 64.0638 88.9149 61.2306C86.5089 57.4753 80.55 48.3458 77.3344 44.6581C75.9627 43.1065 74.5686 41.7573 73.0845 40.5655C74.7035 38.3619 75.8953 36.1357 76.6598 34.4492C78.4587 30.5815 79.7629 23.8581 78.8185 20.665V20.6201L78.796 20.5976C78.796 20.5976 78.7286 20.3502 78.5711 19.923C78.2339 19.001 77.8516 18.0791 77.4693 17.2021C76.4349 14.841 75.0183 11.648 72.7696 9.4443C66.7883 3.6428 58.4683 0.112432 50.5081 0C50.4331 0 50.3582 0 50.2832 0C46.1457 0 42.9976 1.664 40.8839 4.99199ZM50.4856 2.54097C58.1085 2.6534 65.7989 6.22874 70.9932 11.2657C72.8821 13.1096 74.1863 16.0553 75.1307 18.214C75.6029 19.3158 75.9627 20.2378 76.1651 20.7999C76.3 21.1597 76.3675 21.3846 76.3675 21.3846C77.0421 23.6782 76.0976 29.6146 74.3437 33.3923C73.6466 34.8989 71.9826 38.2494 69.3967 41.0602C71.4879 42.3869 73.4442 44.0734 75.423 46.3445C80.505 52.146 94.2217 74.1602 94.5815 75.6219C94.9413 77.061 81.1796 82.5027 81.1796 82.5027C81.1796 82.5027 76.1426 78.4776 70.611 73.9354C70.3636 79.512 70.0938 83.9868 70.0938 83.9868H61.5939C62.1036 83.1923 62.5908 82.3828 63.0555 81.5583C64.697 78.725 68.9245 70.0902 69.0594 69.7079C69.9139 66.8746 69.689 57.7676 69.4192 51.7863C69.2843 48.6382 66.8107 46.1197 63.6626 45.8948C62.1111 45.8049 60.7169 45.7149 60.3571 45.7149C59.5926 45.7149 58.7831 45.6025 57.9286 45.4001C55.5226 44.7255 55.1178 43.039 55.1178 43.039C55.7249 43.2414 56.3546 43.3988 57.0741 43.3988C58.873 43.3988 61.2116 42.4319 65.1243 38.8341C67.4179 36.6979 67.2605 34.2468 68.6771 31.1212C69.3292 29.6821 69.9364 27.2086 70.3186 24.5777C70.6559 22.2841 72.5898 20.6425 74.8159 20.6425C75.1457 20.6425 75.483 20.68 75.8278 20.755C75.1757 20.1029 73.9614 19.1135 72.2075 18.5063C71.7578 18.3489 69.734 17.6968 67.283 17.4944C66.8632 17.4645 66.4285 17.4495 65.9787 17.4495C64.2248 17.4495 62.3584 17.7418 60.7619 18.6637C55.8599 21.497 52.8916 29.1649 51.5649 32.8527C48.1245 42.4769 43.2 43.9385 39.3548 43.9385C37.8707 43.9385 36.5665 43.7136 35.5546 43.6687C35.5246 43.6687 35.4946 43.6687 35.4647 43.6687C34.4977 43.6687 33.7107 44.4107 33.6433 45.3326C33.6283 45.4826 33.6358 45.64 33.6658 45.8049C34.138 48.3233 34.7676 52.236 34.4977 53.9C34.1155 56.2386 32.384 59.4541 30.3827 62.5573C29.3933 64.0863 27.8867 65.2331 26.1328 65.7503C23.8617 66.3799 21.7254 67.2344 20.039 68.3363C19.0945 68.9209 14.8671 71.5968 13.5404 74.2502C18.1951 71.4169 29.4158 70.495 34.2504 70.495C35.1049 70.495 35.757 70.5174 36.1617 70.5849C51.9697 72.6761 61.369 73.4182 61.369 73.4182C60.8743 74.7674 51.7673 81.7157 51.7673 81.7157C51.7673 81.7157 33.9581 83.1548 24.3788 83.9868C23.367 84.0768 22.445 84.1667 21.6355 84.2342C20.1664 84.3691 18.7572 84.4366 17.4081 84.4366C13.8102 84.4366 10.6846 83.9868 8.27857 83.1773C5.64765 82.7726 3.39901 81.4458 3.10668 78.7475C3.09169 78.6425 3.0767 78.5376 3.06171 78.4327C2.83685 74.9698 5.17544 68.5162 12.4386 56.5759C17.3181 48.5482 20.8934 43.5112 23.367 40.3407C23.3819 40.3257 23.3969 40.3107 23.4119 40.2957C26.7849 36.0008 28.1566 35.2362 28.1566 35.2362C28.4489 35.0788 28.8087 34.8989 29.2359 34.719C29.4458 34.6291 29.6707 34.5392 29.9105 34.4492C30.1504 34.3443 30.4052 34.2468 30.675 34.1569C31.8443 33.7296 33.2835 33.2799 34.7901 32.9426C35.1199 32.8677 35.4572 32.8002 35.802 32.7402H35.8244C36.9713 32.5154 37.7808 31.5485 37.8257 30.4017C37.9831 25.0049 39.4897 17.337 40.0969 14.7736C41.581 8.63479 43.0651 2.54097 50.2832 2.54097C50.3432 2.54097 50.4106 2.54097 50.4856 2.54097Z" fill="white"/>
<path d="M3.06148 78.4323C3.07647 78.5372 3.09147 78.6422 3.10646 78.7471C3.39878 81.4455 5.64742 82.7722 8.27833 83.1769C11.5838 84.2788 16.2835 84.7285 21.6353 84.2338C22.4448 84.1663 23.3667 84.0764 24.3786 83.9865C33.9578 83.1545 51.7671 81.7153 51.7671 81.7153C51.7671 81.7153 60.8741 76.0038 61.3688 74.6546C61.3688 74.6546 60.0421 74.3623 57.5461 73.9125C55.8596 73.5977 53.6334 73.2155 50.8901 72.7657C46.955 72.1136 41.9855 71.3491 36.1615 70.5845C33.5756 70.2248 19.0044 70.9218 13.5402 74.2498C14.8669 71.5964 19.0943 68.9205 20.0387 68.3134C21.7252 67.2341 23.8614 66.3796 26.1326 65.75C27.8865 65.2328 29.3931 64.086 30.3825 62.5569C32.3838 59.4538 34.1152 56.2382 34.4975 53.8996C34.7673 52.2356 34.1377 48.323 33.6655 45.8045C33.6355 45.6396 33.628 45.4822 33.643 45.3323C33.733 44.3878 34.5425 43.6233 35.5544 43.6683C39.1972 43.8482 46.7976 46.1868 51.5647 32.8523C52.8914 29.1645 55.8596 21.4967 60.7616 18.6634C62.7629 17.5166 65.169 17.3367 67.2827 17.4941C69.7337 17.6965 71.7575 18.3486 72.2072 18.506C73.9612 19.1131 75.1754 20.1025 75.8276 20.7546C75.4828 20.6797 75.1455 20.6422 74.8157 20.6422C72.5895 20.6422 70.6557 22.2837 70.3184 24.5773C69.9361 27.2082 69.329 29.6817 68.6769 31.1208C67.2602 34.2465 67.4176 36.6975 65.124 38.8337C59.6598 43.8707 57.2313 43.7582 55.1176 43.0387C55.1176 43.0387 55.5223 44.7251 57.9284 45.3997C58.7828 45.6021 59.5923 45.7145 60.3569 45.7145C60.7167 45.7145 62.1108 45.8045 63.6624 45.8944C66.8105 46.1193 69.284 48.6378 69.4189 51.7859C69.6888 57.7673 69.9136 66.8743 69.0591 69.7076C68.9242 70.0898 64.6968 78.7246 63.0553 81.5579C62.5905 82.3824 62.1033 83.1919 61.5936 83.9865H70.0935C70.0935 83.9865 70.3634 79.5117 70.6107 73.935C76.1424 78.4773 81.1793 82.5023 81.1793 82.5023C81.1793 82.5023 94.941 77.0606 94.5812 75.6215C94.2215 74.1599 80.5047 52.1457 75.4228 46.3442C73.444 44.073 71.4877 42.3866 69.3964 41.0599C71.9824 38.2491 73.6464 34.8986 74.3434 33.392C76.0974 29.6143 77.0418 23.6778 76.3672 21.3842C76.3672 21.3842 76.2998 21.1594 76.1648 20.7996C75.9625 20.2374 75.6027 19.3155 75.1305 18.2136C74.186 16.0549 72.8818 13.1092 70.993 11.2653C65.7986 6.22835 58.1083 2.65301 50.4853 2.54058C43.0873 2.42814 41.5807 8.56694 40.0966 14.7732C39.4895 17.3367 37.9829 25.0045 37.8255 30.4013C37.7805 31.5481 36.971 32.515 35.8242 32.7399H35.8017C35.4569 32.7998 35.1196 32.8673 34.7898 32.9422C33.2832 33.2795 31.8441 33.7293 30.6748 34.1565C30.405 34.2465 30.1501 34.3439 29.9103 34.4488C29.6704 34.5388 29.4456 34.6287 29.2357 34.7187C28.8084 34.8986 28.4487 35.0785 28.1563 35.2359C28.1563 35.2359 26.7847 36.0004 23.4117 40.2953C23.3967 40.3103 23.3817 40.3253 23.3667 40.3403C20.8932 43.5109 17.3179 48.5478 12.4383 56.5755C5.17521 68.5158 2.83661 74.9694 3.06148 78.4323Z" fill="white"/>
<path style="mix-blend-mode:multiply" d="M20.0391 68.3356C21.7256 67.2338 23.8618 66.3793 26.1329 65.7497C27.8868 65.2325 29.3934 64.0857 30.3828 62.5566C32.3841 59.4535 34.1156 56.238 34.4978 53.8994C34.7677 52.2354 34.1381 48.3227 33.6659 45.8042C33.6359 45.6393 33.6284 45.4819 33.6434 45.332C33.0137 47.3783 33.0362 50.4365 32.3841 52.3028C28.6514 63.5011 20.7137 67.5261 20.0391 68.3356Z" fill="white"/>
<path style="mix-blend-mode:multiply" d="M3.06148 78.4318C3.07647 78.5368 3.09146 78.6417 3.10645 78.7466C3.39878 81.445 5.64742 82.7717 8.27833 83.1765C11.5838 84.2783 16.2835 84.728 21.6353 84.2333C22.4448 84.1659 23.3667 84.0759 24.3786 83.986C33.9578 83.154 51.7671 81.7148 51.7671 81.7148C51.7671 81.7148 55.3199 76.9027 57.5461 73.912C55.8596 73.5972 53.6335 73.215 50.8901 72.7652C48.8214 75.6885 45.7407 77.7797 39.2646 78.6567C29.8428 79.9384 22.872 81.2876 14.597 80.4331C10.1897 79.9834 6.95163 77.9821 7.28893 75.2387C8.39076 65.5471 18.2848 47.4005 23.3667 40.3398C20.8932 43.5104 17.3179 48.5474 12.4383 56.575C5.17521 68.5153 2.83661 74.9689 3.06148 78.4318Z" fill="white"/>
<path d="M78.4595 84.255H34.3186C33.734 84.255 33.2617 83.7828 33.2617 83.1982V82.5461C33.2617 81.9614 33.734 81.5117 34.3186 81.5117H78.4595C79.0441 81.5117 79.5163 81.9614 79.5163 82.5461V83.1982C79.5163 83.7828 79.0441 84.255 78.4595 84.255Z" fill="white"/>
<path d="M69.1266 84.255H23.6366C23.2318 84.255 22.8945 83.9177 22.8945 83.513V82.8834C22.8945 82.1188 23.5242 81.5117 24.2887 81.5117H69.1266C69.1416 81.5117 69.1491 81.5117 69.1491 81.5117V84.2326C69.1491 84.2476 69.1416 84.255 69.1266 84.255Z" fill="white"/>
<path d="M69.1266 84.255H23.6366C23.2318 84.255 22.8945 83.9177 22.8945 83.513V82.8834C22.8945 82.1188 23.5242 81.5117 24.2887 81.5117H69.1266C69.1416 81.5117 69.1491 81.5117 69.1491 81.5117V84.2326C69.1491 84.2476 69.1416 84.255 69.1266 84.255Z" fill="white"/>
<path d="M103.26 84.2554H51.2713C50.2144 84.2554 49.4949 83.1536 49.9221 82.1867L65.2579 46.748C65.5052 46.2084 66.0224 45.8711 66.6295 45.8711H118.618C119.675 45.8711 120.394 46.9504 119.967 47.9398L104.631 83.3559C104.384 83.8956 103.867 84.2554 103.26 84.2554Z" fill="url(#paint0_linear_73_186)"/>
<path d="M103.26 84.2554H51.2713C50.2144 84.2554 49.4949 83.1536 49.9221 82.1867L65.2579 46.748C65.5052 46.2084 66.0224 45.8711 66.6295 45.8711H118.618C119.675 45.8711 120.394 46.9504 119.967 47.9398L104.631 83.3559C104.384 83.8956 103.867 84.2554 103.26 84.2554Z" fill="white"/>
<path d="M105.803 84.2554H53.8142C52.7574 84.2554 52.0378 83.1536 52.465 82.1867L67.8008 46.748C68.0481 46.2084 68.5653 45.8711 69.1724 45.8711H121.161C122.218 45.8711 122.938 46.9504 122.511 47.9398L107.175 83.3559C106.927 83.8956 106.41 84.2554 105.803 84.2554Z" fill="black"/>
<path style="mix-blend-mode:multiply" d="M55.1172 43.041C55.1172 43.041 56.3765 45.4245 59.3896 44.8174C65.461 43.6256 69.3062 39.2408 71.3749 33.7316C72.6566 30.3361 73.1064 27.278 73.5561 25.0068C74.0508 22.3534 75.8272 20.7569 75.8272 20.7569C75.4824 20.682 75.1451 20.6445 74.8153 20.6445C72.5892 20.6445 70.6553 22.286 70.318 24.5796C69.9358 27.2105 69.3286 29.684 68.6765 31.1231C67.2599 34.2488 67.4173 36.6998 65.1237 38.836C59.6595 43.873 57.2309 43.7605 55.1172 43.041Z" fill="white"/>
<path style="mix-blend-mode:multiply" d="M35.5547 43.6665C39.1976 43.8464 46.798 46.1849 51.5651 32.8505C52.8918 29.1627 55.86 21.4948 60.762 18.6616C62.7633 17.5147 65.1694 17.3349 67.2831 17.4923C53.9936 14.9288 51.3627 24.7329 46.0109 33.9973C41.6486 41.5527 37.1963 42.4522 35.5547 43.6665Z" fill="white"/>
<path d="M42.8626 54.3722C43.02 51.5838 43.1549 48.7281 43.1324 46.9966C43.1324 46.7493 43.3123 46.5469 43.5596 46.5469C43.807 46.5469 44.0094 46.7268 44.0094 46.9741C44.0319 48.7505 43.8744 51.6288 43.7395 54.4171C43.6046 56.8457 43.4922 59.3866 43.4922 61.0281C43.4922 61.253 43.2898 61.4554 43.0424 61.4554C42.7951 61.4554 42.6152 61.253 42.6152 61.0281C42.6152 59.3641 42.7276 56.9356 42.8626 54.3722Z" fill="white"/>
<path d="M54.4867 47.8521C54.4867 47.6047 54.6666 47.4023 54.914 47.4023C55.1613 47.4023 55.3637 47.5822 55.3637 47.8296C55.4087 50.6629 55.2738 53.8335 55.1388 56.9141C55.0714 58.2858 55.0039 59.6125 54.9589 60.8717C54.9589 61.1191 54.7566 61.299 54.5317 61.299C54.5317 61.299 54.5242 61.299 54.5092 61.299C54.2844 61.299 54.082 61.0741 54.082 60.8492C54.127 59.5675 54.1944 58.2408 54.2619 56.8691C54.3968 53.811 54.5317 50.6629 54.4867 47.8521Z" fill="white"/>
</g>
<defs>
<linearGradient id="paint0_linear_73_186" x1="75.473" y1="41.9193" x2="65.0054" y2="82.9525" gradientUnits="userSpaceOnUse">
<stop stop-color="#A76DFC"/>
<stop offset="1" stop-color="#5C1CB2"/>
</linearGradient>
<clipPath id="clip0_73_186">
<rect width="123" height="87" fill="white" transform="translate(0.5)"/>
</clipPath>
</defs>
</svg>
