<svg width="100" height="16" viewBox="0 0 100 16" fill="none" xmlns="http://www.w3.org/2000/svg">
<path d="M0.264205 0.454545H4.05682L8.0625 10.2273H8.23295L12.2386 0.454545H16.0312V15H13.0483V5.53267H12.9276L9.16335 14.929H7.1321L3.3679 5.49716H3.24716V15H0.264205V0.454545ZM21.0721 15H17.7766L22.7979 0.454545H26.761L31.7752 15H28.4798L24.8363 3.77841H24.7227L21.0721 15ZM20.8661 9.28267H28.6502V11.6832H20.8661V9.28267ZM31.1946 2.99006V0.454545H43.1406V2.99006H38.6875V15H35.6477V2.99006H31.1946ZM57.8104 7.72727C57.8104 9.31345 57.5097 10.6629 56.9084 11.7756C56.3118 12.8883 55.4974 13.7382 54.4652 14.3253C53.4377 14.9077 52.2824 15.1989 50.9993 15.1989C49.7067 15.1989 48.5466 14.9053 47.5192 14.3182C46.4917 13.7311 45.6797 12.8812 45.0831 11.7685C44.4865 10.6558 44.1882 9.30871 44.1882 7.72727C44.1882 6.1411 44.4865 4.79167 45.0831 3.67898C45.6797 2.56629 46.4917 1.71875 47.5192 1.13636C48.5466 0.549242 49.7067 0.255681 50.9993 0.255681C52.2824 0.255681 53.4377 0.549242 54.4652 1.13636C55.4974 1.71875 56.3118 2.56629 56.9084 3.67898C57.5097 4.79167 57.8104 6.1411 57.8104 7.72727ZM54.6925 7.72727C54.6925 6.69981 54.5386 5.83333 54.2308 5.12784C53.9278 4.42235 53.4993 3.88731 52.9453 3.52273C52.3913 3.15814 51.7427 2.97585 50.9993 2.97585C50.2559 2.97585 49.6072 3.15814 49.0533 3.52273C48.4993 3.88731 48.0684 4.42235 47.7607 5.12784C47.4576 5.83333 47.3061 6.69981 47.3061 7.72727C47.3061 8.75473 47.4576 9.62121 47.7607 10.3267C48.0684 11.0322 48.4993 11.5672 49.0533 11.9318C49.6072 12.2964 50.2559 12.4787 50.9993 12.4787C51.7427 12.4787 52.3913 12.2964 52.9453 11.9318C53.4993 11.5672 53.9278 11.0322 54.2308 10.3267C54.5386 9.62121 54.6925 8.75473 54.6925 7.72727ZM60.0884 15V0.454545H63.1637V6.8679H63.3555L68.5898 0.454545H72.2759L66.8782 6.96733L72.3398 15H68.6609L64.6765 9.01989L63.1637 10.8665V15H60.0884ZM73.8775 15V0.454545H83.6786V2.99006H76.9528V6.45597H83.1744V8.99148H76.9528V12.4645H83.707V15H73.8775ZM99.4901 7.72727C99.4901 9.31345 99.1894 10.6629 98.5881 11.7756C97.9915 12.8883 97.1771 13.7382 96.1449 14.3253C95.1174 14.9077 93.9621 15.1989 92.679 15.1989C91.3864 15.1989 90.2263 14.9053 89.1989 14.3182C88.1714 13.7311 87.3594 12.8812 86.7628 11.7685C86.1662 10.6558 85.8679 9.30871 85.8679 7.72727C85.8679 6.1411 86.1662 4.79167 86.7628 3.67898C87.3594 2.56629 88.1714 1.71875 89.1989 1.13636C90.2263 0.549242 91.3864 0.255681 92.679 0.255681C93.9621 0.255681 95.1174 0.549242 96.1449 1.13636C97.1771 1.71875 97.9915 2.56629 98.5881 3.67898C99.1894 4.79167 99.4901 6.1411 99.4901 7.72727ZM96.3722 7.72727C96.3722 6.69981 96.2183 5.83333 95.9105 5.12784C95.6075 4.42235 95.179 3.88731 94.625 3.52273C94.071 3.15814 93.4223 2.97585 92.679 2.97585C91.9356 2.97585 91.2869 3.15814 90.733 3.52273C90.179 3.88731 89.7481 4.42235 89.4403 5.12784C89.1373 5.83333 88.9858 6.69981 88.9858 7.72727C88.9858 8.75473 89.1373 9.62121 89.4403 10.3267C89.7481 11.0322 90.179 11.5672 90.733 11.9318C91.2869 12.2964 91.9356 12.4787 92.679 12.4787C93.4223 12.4787 94.071 12.2964 94.625 11.9318C95.179 11.5672 95.6075 11.0322 95.9105 10.3267C96.2183 9.62121 96.3722 8.75473 96.3722 7.72727Z" fill="#5EAC24"/>
</svg>
