<svg width="26" height="26" viewBox="0 0 26 26" fill="none" xmlns="http://www.w3.org/2000/svg">
<path d="M13 0C5.824 0 0 5.824 0 13C0 20.176 5.824 26 13 26C20.176 26 26 20.176 26 13C26 5.824 20.176 0 13 0ZM8.489 14.911C8.866 15.288 8.866 15.912 8.489 16.289C8.294 16.484 8.047 16.575 7.8 16.575C7.553 16.575 7.306 16.484 7.111 16.289L4.511 13.689C4.134 13.312 4.134 12.688 4.511 12.311L7.111 9.711C7.488 9.334 8.112 9.334 8.489 9.711C8.866 10.088 8.866 10.712 8.489 11.089L6.578 13L8.489 14.911ZM15.197 10.348L12.597 16.419C12.441 16.783 12.077 17.004 11.7 17.004C11.57 17.004 11.44 16.978 11.323 16.926C10.829 16.718 10.595 16.146 10.816 15.639L13.416 9.568C13.624 9.074 14.196 8.84 14.69 9.061C15.184 9.282 15.405 9.854 15.197 10.348ZM21.489 13.689L18.889 16.289C18.694 16.484 18.447 16.575 18.2 16.575C17.953 16.575 17.706 16.484 17.511 16.289C17.134 15.912 17.134 15.288 17.511 14.911L19.422 13L17.511 11.089C17.134 10.712 17.134 10.088 17.511 9.711C17.888 9.334 18.512 9.334 18.889 9.711L21.489 12.311C21.866 12.688 21.866 13.312 21.489 13.689Z" fill="white"/>
</svg>
