<svg width="388" height="19" viewBox="0 0 388 19" fill="none" xmlns="http://www.w3.org/2000/svg">
<path d="M4.52557 18H0.571023L6.59659 0.545454H11.3523L17.3693 18H13.4148L9.04261 4.53409H8.90625L4.52557 18ZM4.27841 11.1392H13.6193V14.0199H4.27841V11.1392ZM30.2514 0.545454H33.9418V11.8807C33.9418 13.1534 33.6378 14.267 33.0298 15.2216C32.4276 16.1761 31.5838 16.9205 30.4986 17.4545C29.4134 17.983 28.1491 18.2472 26.706 18.2472C25.2571 18.2472 23.9901 17.983 22.9048 17.4545C21.8196 16.9205 20.9759 16.1761 20.3736 15.2216C19.7713 14.267 19.4702 13.1534 19.4702 11.8807V0.545454H23.1605V11.5653C23.1605 12.2301 23.3054 12.821 23.5952 13.3381C23.8906 13.8551 24.3054 14.2614 24.8395 14.5568C25.3736 14.8523 25.9957 15 26.706 15C27.4219 15 28.044 14.8523 28.5724 14.5568C29.1065 14.2614 29.5185 13.8551 29.8082 13.3381C30.1037 12.821 30.2514 12.2301 30.2514 11.5653V0.545454ZM36.3132 3.58807V0.545454H50.6484V3.58807H45.3047V18H41.657V3.58807H36.3132ZM53.0092 18V0.545454H56.6996V7.74716H64.1911V0.545454H67.8729V18H64.1911V10.7898H56.6996V18H53.0092ZM70.9155 18V0.545454H82.6768V3.58807H74.6058V7.74716H82.0717V10.7898H74.6058V14.9574H82.7109V18H70.9155ZM100.21 0.545454V18H97.0227L89.429 7.0142H89.3011V18H85.6108V0.545454H88.8494L96.3835 11.5227H96.5369V0.545454H100.21ZM102.594 3.58807V0.545454H116.93V3.58807H111.586V18H107.938V3.58807H102.594ZM122.981 0.545454V18H119.29V0.545454H122.981ZM141.418 6.65625H137.685C137.616 6.1733 137.477 5.74432 137.267 5.36932C137.057 4.98864 136.787 4.66477 136.457 4.39773C136.128 4.13068 135.747 3.92614 135.315 3.78409C134.889 3.64205 134.426 3.57102 133.926 3.57102C133.023 3.57102 132.236 3.79545 131.565 4.24432C130.895 4.6875 130.375 5.33523 130.006 6.1875C129.636 7.03409 129.452 8.0625 129.452 9.27273C129.452 10.517 129.636 11.5625 130.006 12.4091C130.381 13.2557 130.903 13.8949 131.574 14.3267C132.244 14.7585 133.02 14.9744 133.901 14.9744C134.395 14.9744 134.852 14.9091 135.273 14.7784C135.699 14.6477 136.077 14.4574 136.406 14.2074C136.736 13.9517 137.009 13.642 137.224 13.2784C137.446 12.9148 137.599 12.5 137.685 12.0341L141.418 12.0511C141.321 12.8523 141.08 13.625 140.693 14.3693C140.313 15.108 139.798 15.7699 139.151 16.3551C138.509 16.9347 137.741 17.3949 136.849 17.7358C135.963 18.071 134.96 18.2386 133.841 18.2386C132.284 18.2386 130.892 17.8864 129.665 17.1818C128.443 16.4773 127.477 15.4574 126.767 14.1222C126.062 12.7869 125.71 11.1705 125.71 9.27273C125.71 7.36932 126.068 5.75 126.784 4.41477C127.5 3.07955 128.472 2.0625 129.699 1.36364C130.926 0.659091 132.307 0.306818 133.841 0.306818C134.852 0.306818 135.79 0.448863 136.653 0.732954C137.523 1.01705 138.293 1.43182 138.963 1.97727C139.634 2.51704 140.179 3.17898 140.599 3.96307C141.026 4.74716 141.298 5.64489 141.418 6.65625ZM152.627 18H148.673L154.698 0.545454H159.454L165.471 18H161.516L157.144 4.53409H157.008L152.627 18ZM152.38 11.1392H161.721V14.0199H152.38V11.1392ZM167.572 18V0.545454H174.458C175.776 0.545454 176.901 0.78125 177.833 1.25284C178.771 1.71875 179.484 2.38068 179.972 3.23864C180.467 4.09091 180.714 5.09375 180.714 6.24716C180.714 7.40625 180.464 8.40341 179.964 9.23864C179.464 10.0682 178.739 10.7045 177.79 11.1477C176.847 11.5909 175.705 11.8125 174.364 11.8125H169.754V8.84659H173.768C174.472 8.84659 175.058 8.75 175.523 8.55682C175.989 8.36364 176.336 8.07386 176.563 7.6875C176.796 7.30114 176.913 6.82102 176.913 6.24716C176.913 5.66761 176.796 5.17898 176.563 4.78125C176.336 4.38352 175.987 4.08239 175.515 3.87784C175.049 3.66761 174.461 3.5625 173.751 3.5625H171.262V18H167.572ZM176.998 10.0568L181.336 18H177.262L173.018 10.0568H176.998ZM182.657 3.58807V0.545454H196.992V3.58807H191.648V18H188.001V3.58807H182.657ZM208.822 5.56534C208.754 4.87784 208.461 4.34375 207.944 3.96307C207.427 3.58239 206.725 3.39204 205.839 3.39204C205.237 3.39204 204.728 3.47727 204.313 3.64773C203.898 3.8125 203.58 4.04261 203.359 4.33807C203.143 4.63352 203.035 4.96875 203.035 5.34375C203.023 5.65625 203.089 5.92898 203.231 6.16193C203.379 6.39489 203.58 6.59659 203.836 6.76705C204.092 6.93182 204.387 7.0767 204.722 7.2017C205.058 7.32102 205.415 7.4233 205.796 7.50852L207.364 7.88352C208.126 8.05398 208.825 8.28125 209.461 8.56534C210.097 8.84943 210.648 9.19886 211.114 9.61364C211.58 10.0284 211.941 10.517 212.197 11.0795C212.458 11.642 212.592 12.2869 212.597 13.0142C212.592 14.0824 212.319 15.0085 211.779 15.7926C211.245 16.571 210.472 17.1761 209.461 17.608C208.455 18.0341 207.242 18.2472 205.822 18.2472C204.413 18.2472 203.185 18.0312 202.14 17.5994C201.1 17.1676 200.288 16.5284 199.702 15.6818C199.123 14.8295 198.819 13.7756 198.79 12.5199H202.362C202.401 13.1051 202.569 13.5937 202.864 13.9858C203.165 14.3722 203.566 14.6648 204.066 14.8636C204.572 15.0568 205.143 15.1534 205.779 15.1534C206.404 15.1534 206.947 15.0625 207.407 14.8807C207.873 14.6989 208.234 14.446 208.489 14.1222C208.745 13.7983 208.873 13.4261 208.873 13.0057C208.873 12.6136 208.756 12.2841 208.523 12.017C208.296 11.75 207.961 11.5227 207.518 11.3352C207.08 11.1477 206.543 10.9773 205.907 10.8239L204.006 10.3466C202.535 9.98864 201.373 9.42898 200.521 8.66761C199.668 7.90625 199.245 6.88068 199.251 5.59091C199.245 4.53409 199.526 3.6108 200.094 2.82102C200.668 2.03125 201.455 1.41477 202.455 0.971591C203.455 0.528409 204.592 0.306818 205.864 0.306818C207.16 0.306818 208.29 0.528409 209.256 0.971591C210.228 1.41477 210.984 2.03125 211.523 2.82102C212.063 3.6108 212.342 4.52557 212.359 5.56534H208.822ZM223.643 18H219.688L225.714 0.545454H230.469L236.487 18H232.532L228.16 4.53409H228.023L223.643 18ZM223.396 11.1392H232.737V14.0199H223.396V11.1392ZM253.187 0.545454V18H249.999L242.406 7.0142H242.278V18H238.587V0.545454H241.826L249.36 11.5227H249.513V0.545454H253.187ZM262.423 18H256.236V0.545454H262.474C264.23 0.545454 265.741 0.894886 267.009 1.59375C268.276 2.28693 269.25 3.28409 269.932 4.58523C270.619 5.88636 270.963 7.44318 270.963 9.25568C270.963 11.0739 270.619 12.6364 269.932 13.9432C269.25 15.25 268.27 16.2528 266.991 16.9517C265.719 17.6506 264.196 18 262.423 18ZM259.926 14.8381H262.27C263.361 14.8381 264.278 14.6449 265.023 14.2585C265.773 13.8665 266.335 13.2614 266.71 12.4432C267.091 11.6193 267.281 10.5568 267.281 9.25568C267.281 7.96591 267.091 6.91193 266.71 6.09375C266.335 5.27557 265.776 4.6733 265.031 4.28693C264.287 3.90057 263.369 3.70739 262.278 3.70739H259.926V14.8381ZM290.825 6.1875C290.706 5.77273 290.538 5.40625 290.322 5.08807C290.107 4.7642 289.842 4.49148 289.53 4.26989C289.223 4.04261 288.871 3.86932 288.473 3.75C288.081 3.63068 287.646 3.57102 287.169 3.57102C286.277 3.57102 285.493 3.79261 284.817 4.23579C284.146 4.67898 283.624 5.32386 283.249 6.17045C282.874 7.01136 282.686 8.03977 282.686 9.25568C282.686 10.4716 282.871 11.5057 283.24 12.358C283.609 13.2102 284.132 13.8608 284.808 14.3097C285.484 14.7528 286.283 14.9744 287.203 14.9744C288.038 14.9744 288.751 14.8267 289.342 14.5312C289.939 14.2301 290.393 13.8068 290.706 13.2614C291.024 12.7159 291.183 12.071 291.183 11.3267L291.933 11.4375H287.433V8.65909H294.737V10.858C294.737 12.392 294.413 13.7102 293.766 14.8125C293.118 15.9091 292.226 16.7557 291.089 17.3523C289.953 17.9432 288.652 18.2386 287.186 18.2386C285.55 18.2386 284.112 17.8778 282.874 17.1562C281.635 16.429 280.669 15.3977 279.976 14.0625C279.288 12.7216 278.945 11.1307 278.945 9.28977C278.945 7.875 279.149 6.61364 279.558 5.50568C279.973 4.39205 280.553 3.44886 281.297 2.67614C282.041 1.90341 282.908 1.31534 283.896 0.911931C284.885 0.508522 285.956 0.306818 287.109 0.306818C288.098 0.306818 289.018 0.451704 289.871 0.741477C290.723 1.02557 291.479 1.42898 292.138 1.9517C292.803 2.47443 293.345 3.09659 293.766 3.81818C294.186 4.53409 294.456 5.32386 294.575 6.1875H290.825ZM299.979 18H296.024L302.05 0.545454H306.805L312.822 18H308.868L304.496 4.53409H304.359L299.979 18ZM299.732 11.1392H309.072V14.0199H299.732V11.1392ZM314.923 18V0.545454H318.614V14.9574H326.097V18H314.923ZM328.54 18V0.545454H332.231V14.9574H339.714V18H328.54ZM342.158 18V0.545454H353.919V3.58807H345.848V7.74716H353.314V10.7898H345.848V14.9574H353.953V18H342.158ZM356.853 18V0.545454H363.739C365.058 0.545454 366.183 0.78125 367.114 1.25284C368.052 1.71875 368.765 2.38068 369.254 3.23864C369.748 4.09091 369.995 5.09375 369.995 6.24716C369.995 7.40625 369.745 8.40341 369.245 9.23864C368.745 10.0682 368.021 10.7045 367.072 11.1477C366.129 11.5909 364.987 11.8125 363.646 11.8125H359.035V8.84659H363.049C363.754 8.84659 364.339 8.75 364.805 8.55682C365.271 8.36364 365.617 8.07386 365.844 7.6875C366.077 7.30114 366.194 6.82102 366.194 6.24716C366.194 5.66761 366.077 5.17898 365.844 4.78125C365.617 4.38352 365.268 4.08239 364.796 3.87784C364.33 3.66761 363.742 3.5625 363.032 3.5625H360.543V18H356.853ZM366.279 10.0568L370.617 18H366.543L362.299 10.0568H366.279ZM370.854 0.545454H374.987L378.967 8.0625H379.138L383.118 0.545454H387.251L380.885 11.8295V18H377.22V11.8295L370.854 0.545454Z" fill="#DC660F"/>
</svg>
